<svg xmlns="http://www.w3.org/2000/svg" xmlns:xlink="http://www.w3.org/1999/xlink" width="300" zoomAndPan="magnify" viewBox="0 0 224.87999 225" height="300" preserveAspectRatio="xMidYMid meet" version="1.0"><path fill="#000100" d="M 185.949219 199.085938 L 29.648438 199.085938 C 22.574219 199.085938 16.820312 193.332031 16.820312 186.261719 L 16.820312 29.957031 C 16.820312 22.886719 22.574219 17.132812 29.648438 17.132812 L 185.949219 17.132812 C 193.023438 17.132812 198.773438 22.886719 198.773438 29.957031 L 198.773438 102.964844 C 198.773438 103.6875 198.1875 104.277344 197.464844 104.277344 C 196.738281 104.277344 196.152344 103.6875 196.152344 102.964844 L 196.152344 29.957031 C 196.152344 24.332031 191.574219 19.753906 185.949219 19.753906 L 29.648438 19.753906 C 24.019531 19.753906 19.445312 24.332031 19.445312 29.957031 L 19.445312 186.261719 C 19.445312 191.886719 24.019531 196.460938 29.648438 196.460938 L 185.949219 196.460938 C 191.574219 196.460938 196.152344 191.886719 196.152344 186.261719 L 196.152344 162.445312 C 196.152344 161.722656 196.738281 161.132812 197.464844 161.132812 C 198.1875 161.132812 198.773438 161.722656 198.773438 162.445312 L 198.773438 186.261719 C 198.773438 193.332031 193.023438 199.085938 185.949219 199.085938 Z M 185.949219 199.085938 " fill-opacity="1" fill-rule="nonzero"/><path fill="#000100" d="M 179.1875 102.90625 C 178.464844 102.90625 177.875 102.316406 177.875 101.59375 L 177.875 45.886719 C 177.875 41.554688 174.351562 38.03125 170.019531 38.03125 L 45.574219 38.03125 C 41.242188 38.03125 37.71875 41.554688 37.71875 45.886719 L 37.71875 57.449219 C 37.71875 58.171875 37.132812 58.761719 36.40625 58.761719 C 35.683594 58.761719 35.097656 58.171875 35.097656 57.449219 L 35.097656 45.886719 C 35.097656 40.105469 39.796875 35.40625 45.574219 35.40625 L 170.019531 35.40625 C 175.800781 35.40625 180.5 40.105469 180.5 45.886719 L 180.5 101.59375 C 180.5 102.316406 179.910156 102.90625 179.1875 102.90625 Z M 179.1875 102.90625 " fill-opacity="1" fill-rule="nonzero"/><path fill="#000100" d="M 36.40625 132.160156 C 35.683594 132.160156 35.097656 131.574219 35.097656 130.851562 L 35.097656 86.9375 C 35.097656 86.214844 35.683594 85.625 36.40625 85.625 C 37.132812 85.625 37.71875 86.214844 37.71875 86.9375 L 37.71875 130.851562 C 37.71875 131.574219 37.132812 132.160156 36.40625 132.160156 Z M 36.40625 132.160156 " fill-opacity="1" fill-rule="nonzero"/><path fill="#000100" d="M 170.019531 180.8125 L 45.574219 180.8125 C 39.796875 180.8125 35.097656 176.109375 35.097656 170.332031 L 35.097656 160.339844 C 35.097656 159.617188 35.683594 159.027344 36.40625 159.027344 C 37.132812 159.027344 37.71875 159.617188 37.71875 160.339844 L 37.71875 170.332031 C 37.71875 174.664062 41.242188 178.1875 45.574219 178.1875 L 170.019531 178.1875 C 174.351562 178.1875 177.875 174.664062 177.875 170.332031 L 177.875 162.839844 C 177.875 162.117188 178.464844 161.527344 179.1875 161.527344 C 179.910156 161.527344 180.5 162.117188 180.5 162.839844 L 180.5 170.332031 C 180.5 176.109375 175.800781 180.8125 170.019531 180.8125 Z M 170.019531 180.8125 " fill-opacity="1" fill-rule="nonzero"/><path fill="#000100" d="M 36.15625 88.25 C 33.046875 88.25 30.519531 85.71875 30.519531 82.613281 L 30.519531 61.777344 C 30.519531 58.667969 33.050781 56.140625 36.15625 56.140625 C 39.265625 56.140625 41.792969 58.671875 41.792969 61.777344 L 41.792969 82.613281 C 41.792969 85.722656 39.265625 88.25 36.15625 88.25 Z M 36.15625 58.761719 C 34.492188 58.761719 33.144531 60.113281 33.144531 61.773438 L 33.144531 82.609375 C 33.144531 84.273438 34.496094 85.625 36.15625 85.625 C 37.816406 85.625 39.171875 84.269531 39.171875 82.609375 L 39.171875 61.773438 C 39.171875 60.109375 37.816406 58.761719 36.15625 58.761719 Z M 36.15625 58.761719 " fill-opacity="1" fill-rule="nonzero"/><path fill="#000100" d="M 36.15625 161.652344 C 33.046875 161.652344 30.519531 159.121094 30.519531 156.015625 L 30.519531 135.179688 C 30.519531 132.066406 33.050781 129.539062 36.15625 129.539062 C 39.265625 129.539062 41.792969 132.066406 41.792969 135.179688 L 41.792969 156.015625 C 41.792969 159.125 39.265625 161.652344 36.15625 161.652344 Z M 36.15625 132.160156 C 34.492188 132.160156 33.144531 133.515625 33.144531 135.179688 L 33.144531 156.015625 C 33.144531 157.679688 34.496094 159.027344 36.15625 159.027344 C 37.816406 159.027344 39.171875 157.675781 39.171875 156.015625 L 39.171875 135.179688 C 39.171875 133.515625 37.816406 132.160156 36.15625 132.160156 Z M 36.15625 132.160156 " fill-opacity="1" fill-rule="nonzero"/><path fill="#000100" d="M 107.800781 144.1875 C 87.90625 144.1875 71.722656 128.003906 71.722656 108.109375 C 71.722656 88.214844 87.90625 72.03125 107.800781 72.03125 C 117.21875 72.03125 126.136719 75.640625 132.898438 82.195312 C 139.652344 88.730469 143.539062 97.492188 143.859375 106.867188 C 143.886719 107.589844 143.316406 108.199219 142.59375 108.222656 C 141.855469 108.25 141.261719 107.679688 141.234375 106.957031 C 140.941406 98.265625 137.332031 90.140625 131.070312 84.078125 C 124.796875 78.003906 116.53125 74.65625 107.796875 74.65625 C 89.347656 74.65625 74.339844 89.664062 74.339844 108.109375 C 74.339844 126.558594 89.347656 141.566406 107.796875 141.566406 C 109.242188 141.566406 110.699219 141.472656 112.125 141.289062 C 112.839844 141.195312 113.5 141.703125 113.59375 142.421875 C 113.6875 143.140625 113.179688 143.796875 112.460938 143.890625 C 110.925781 144.089844 109.355469 144.1875 107.796875 144.1875 Z M 107.800781 144.1875 " fill-opacity="1" fill-rule="nonzero"/><path fill="#000100" d="M 105.972656 134.769531 C 105.941406 134.769531 105.90625 134.769531 105.878906 134.769531 C 91.96875 133.78125 81.074219 122.074219 81.074219 108.113281 C 81.074219 93.378906 93.0625 81.390625 107.796875 81.390625 C 114.542969 81.390625 120.984375 83.914062 125.9375 88.492188 C 130.859375 93.042969 133.875 99.21875 134.429688 105.875 C 134.488281 106.597656 133.953125 107.230469 133.230469 107.289062 C 132.507812 107.351562 131.875 106.8125 131.8125 106.089844 C 131.316406 100.089844 128.59375 94.519531 124.15625 90.417969 C 119.691406 86.285156 113.882812 84.015625 107.796875 84.015625 C 94.503906 84.015625 83.695312 94.828125 83.695312 108.113281 C 83.695312 120.703125 93.519531 131.261719 106.066406 132.15625 C 106.789062 132.207031 107.332031 132.832031 107.277344 133.554688 C 107.230469 134.246094 106.652344 134.773438 105.972656 134.773438 Z M 105.972656 134.769531 " fill-opacity="1" fill-rule="nonzero"/><path fill="#000100" d="M 97.09375 110.371094 C 96.421875 110.371094 95.847656 109.859375 95.789062 109.175781 C 95.757812 108.824219 95.742188 108.46875 95.742188 108.109375 C 95.742188 101.460938 101.152344 96.050781 107.804688 96.050781 C 113.171875 96.050781 117.941406 99.652344 119.40625 104.8125 C 119.605469 105.511719 119.203125 106.234375 118.503906 106.433594 C 117.808594 106.628906 117.082031 106.226562 116.886719 105.527344 C 115.738281 101.492188 112.003906 98.671875 107.808594 98.671875 C 102.605469 98.671875 98.371094 102.90625 98.371094 108.109375 C 98.371094 108.386719 98.382812 108.667969 98.40625 108.945312 C 98.472656 109.671875 97.9375 110.304688 97.214844 110.367188 C 97.179688 110.367188 97.136719 110.371094 97.097656 110.371094 Z M 97.09375 110.371094 " fill-opacity="1" fill-rule="nonzero"/><path fill="#000100" d="M 107.800781 90.3125 C 107.078125 90.3125 106.488281 89.722656 106.488281 89 L 106.488281 82.695312 C 106.488281 81.972656 107.078125 81.382812 107.800781 81.382812 C 108.523438 81.382812 109.113281 81.972656 109.113281 82.695312 L 109.113281 89 C 109.113281 89.722656 108.523438 90.3125 107.800781 90.3125 Z M 107.800781 90.3125 " fill-opacity="1" fill-rule="nonzero"/><path fill="#000100" d="M 88.6875 109.417969 L 82.386719 109.417969 C 81.660156 109.417969 81.074219 108.832031 81.074219 108.105469 C 81.074219 107.382812 81.660156 106.796875 82.386719 106.796875 L 88.6875 106.796875 C 89.414062 106.796875 90 107.382812 90 108.105469 C 90 108.832031 89.414062 109.417969 88.6875 109.417969 Z M 88.6875 109.417969 " fill-opacity="1" fill-rule="nonzero"/><path fill="#000100" d="M 121.308594 95.910156 C 120.96875 95.910156 120.636719 95.785156 120.382812 95.523438 C 119.867188 95.011719 119.867188 94.183594 120.382812 93.671875 L 124.84375 89.210938 C 125.355469 88.695312 126.183594 88.695312 126.699219 89.210938 C 127.210938 89.722656 127.210938 90.550781 126.699219 91.066406 L 122.238281 95.523438 C 121.980469 95.78125 121.644531 95.90625 121.3125 95.90625 Z M 121.308594 95.910156 " fill-opacity="1" fill-rule="nonzero"/><path fill="#000100" d="M 89.828125 127.390625 C 89.492188 127.390625 89.15625 127.261719 88.902344 127.007812 C 88.390625 126.496094 88.390625 125.667969 88.902344 125.152344 L 93.363281 120.691406 C 93.875 120.179688 94.703125 120.179688 95.21875 120.691406 C 95.730469 121.207031 95.730469 122.035156 95.21875 122.546875 L 90.757812 127.007812 C 90.503906 127.261719 90.164062 127.394531 89.832031 127.394531 Z M 89.828125 127.390625 " fill-opacity="1" fill-rule="nonzero"/><path fill="#000100" d="M 94.289062 95.910156 C 93.949219 95.910156 93.617188 95.785156 93.363281 95.523438 L 88.902344 91.066406 C 88.390625 90.550781 88.390625 89.722656 88.902344 89.210938 C 89.417969 88.695312 90.246094 88.695312 90.757812 89.210938 L 95.21875 93.671875 C 95.730469 94.183594 95.730469 95.011719 95.21875 95.523438 C 94.964844 95.78125 94.625 95.90625 94.292969 95.90625 Z M 94.289062 95.910156 " fill-opacity="1" fill-rule="nonzero"/><path fill="#000100" d="M 206.75 156.21875 C 206.71875 156.21875 206.679688 156.21875 206.644531 156.214844 L 189.921875 154.886719 C 189.199219 154.828125 188.660156 154.195312 188.71875 153.472656 C 188.777344 152.75 189.417969 152.210938 190.132812 152.269531 L 206.855469 153.601562 C 207.578125 153.65625 208.117188 154.289062 208.058594 155.011719 C 208.003906 155.699219 207.429688 156.21875 206.75 156.21875 Z M 206.75 156.21875 " fill-opacity="1" fill-rule="nonzero"/><path fill="#000100" d="M 206.746094 114.328125 L 206.742188 114.328125 L 191.558594 114.269531 C 190.835938 114.269531 190.253906 113.675781 190.253906 112.953125 C 190.253906 112.230469 190.839844 111.644531 191.5625 111.644531 L 191.566406 111.644531 L 206.75 111.707031 C 207.472656 111.707031 208.058594 112.296875 208.058594 113.019531 C 208.058594 113.746094 207.46875 114.328125 206.746094 114.328125 Z M 206.746094 114.328125 " fill-opacity="1" fill-rule="nonzero"/><path fill="#000100" d="M 189.28125 144.066406 C 189.226562 144.066406 189.164062 144.066406 189.105469 144.0625 L 174.082031 143.359375 C 172.035156 143.265625 170.453125 141.523438 170.550781 139.480469 L 171.25 124.457031 C 171.292969 123.464844 171.726562 122.550781 172.457031 121.886719 C 173.191406 121.21875 174.132812 120.871094 175.128906 120.921875 L 190.152344 121.621094 C 192.199219 121.714844 193.78125 123.460938 193.683594 125.5 L 192.984375 140.527344 C 192.890625 142.515625 191.246094 144.066406 189.277344 144.066406 Z M 174.953125 123.542969 C 174.679688 123.542969 174.421875 123.644531 174.222656 123.828125 C 174.007812 124.019531 173.882812 124.292969 173.867188 124.578125 L 173.164062 139.605469 C 173.140625 140.207031 173.605469 140.714844 174.203125 140.746094 L 189.226562 141.445312 C 189.8125 141.46875 190.335938 141.007812 190.363281 140.40625 L 191.066406 125.386719 C 191.089844 124.785156 190.628906 124.277344 190.027344 124.246094 L 175.003906 123.546875 C 175.003906 123.546875 174.972656 123.546875 174.953125 123.546875 Z M 174.953125 123.542969 " fill-opacity="1" fill-rule="nonzero"/><path fill="#000100" d="M 190.960938 124.46875 C 190.9375 124.46875 190.917969 124.46875 190.898438 124.46875 C 190.171875 124.433594 189.613281 123.820312 189.648438 123.09375 L 190.148438 112.421875 C 190.183594 111.617188 189.558594 110.933594 188.757812 110.894531 L 177.511719 110.371094 C 176.722656 110.332031 176.023438 110.960938 175.988281 111.761719 L 175.492188 122.40625 C 175.457031 123.128906 174.855469 123.691406 174.121094 123.652344 C 173.398438 123.621094 172.839844 123.003906 172.871094 122.28125 L 173.367188 111.636719 C 173.472656 109.390625 175.378906 107.644531 177.636719 107.746094 L 188.878906 108.273438 C 191.128906 108.378906 192.875 110.292969 192.769531 112.542969 L 192.273438 123.214844 C 192.238281 123.921875 191.65625 124.46875 190.964844 124.46875 Z M 190.960938 124.46875 " fill-opacity="1" fill-rule="nonzero"/><path fill="#000100" d="M 186.789062 157.238281 C 186.726562 157.238281 186.660156 157.238281 186.597656 157.234375 L 175.355469 156.710938 C 173.105469 156.605469 171.359375 154.691406 171.464844 152.441406 L 171.960938 141.769531 C 171.996094 141.042969 172.609375 140.480469 173.332031 140.519531 C 174.058594 140.554688 174.617188 141.167969 174.582031 141.890625 L 174.082031 152.566406 C 174.046875 153.371094 174.671875 154.054688 175.472656 154.089844 L 186.71875 154.617188 C 187.511719 154.660156 188.207031 154.027344 188.242188 153.226562 L 188.738281 142.582031 C 188.773438 141.859375 189.382812 141.292969 190.109375 141.332031 C 190.832031 141.367188 191.390625 141.980469 191.359375 142.707031 L 190.863281 153.347656 C 190.761719 155.535156 188.953125 157.242188 186.785156 157.242188 Z M 186.789062 157.238281 " fill-opacity="1" fill-rule="nonzero"/><path fill="#000100" d="M 122.371094 131.65625 C 122.371094 131.65625 122.335938 131.65625 122.320312 131.65625 L 112.246094 131.246094 C 111.523438 131.21875 110.960938 130.605469 110.984375 129.882812 C 111.015625 129.160156 111.632812 128.601562 112.351562 128.625 L 122.425781 129.03125 C 123.148438 129.0625 123.710938 129.671875 123.683594 130.398438 C 123.652344 131.101562 123.074219 131.65625 122.375 131.65625 Z M 122.371094 131.65625 " fill-opacity="1" fill-rule="nonzero"/><path fill="#000100" d="M 142.050781 157.515625 C 141.429688 157.515625 140.808594 157.5 140.1875 157.460938 L 116.839844 156.386719 L 115.464844 156.300781 C 113.472656 156.175781 111.648438 155.289062 110.328125 153.792969 C 109.011719 152.296875 108.347656 150.378906 108.472656 148.386719 C 108.589844 146.441406 109.449219 144.714844 110.757812 143.460938 C 106.996094 142.875 104.226562 139.496094 104.46875 135.625 C 104.578125 133.886719 105.273438 132.320312 106.351562 131.113281 L 105.171875 131.054688 C 101.046875 130.800781 97.910156 127.253906 98.160156 123.140625 C 98.285156 121.148438 99.171875 119.324219 100.667969 118.003906 C 100.679688 117.996094 100.691406 117.984375 100.703125 117.972656 C 99.519531 117.550781 98.464844 116.839844 97.617188 115.878906 C 96.296875 114.386719 95.632812 112.464844 95.757812 110.476562 C 95.882812 108.484375 96.769531 106.660156 98.265625 105.339844 C 99.761719 104.023438 101.679688 103.363281 103.667969 103.480469 L 142.640625 105.601562 C 143.363281 105.636719 143.917969 106.253906 143.882812 106.980469 C 143.839844 107.703125 143.234375 108.261719 142.503906 108.214844 L 103.523438 106.097656 C 102.21875 106.019531 100.980469 106.445312 100.007812 107.300781 C 99.039062 108.160156 98.460938 109.339844 98.382812 110.632812 C 98.300781 111.925781 98.730469 113.171875 99.589844 114.140625 C 100.445312 115.113281 101.628906 115.691406 102.921875 115.769531 L 121.132812 116.53125 C 121.851562 116.5625 122.414062 117.167969 122.386719 117.890625 C 122.359375 118.609375 121.75 119.164062 121.042969 119.15625 L 105.96875 118.765625 C 105.96875 118.765625 105.9375 118.765625 105.921875 118.765625 C 104.628906 118.6875 103.386719 119.113281 102.417969 119.972656 C 101.449219 120.832031 100.871094 122.011719 100.792969 123.304688 C 100.625 125.96875 102.660156 128.273438 105.328125 128.441406 L 110.820312 128.703125 C 111.332031 128.625 111.859375 128.601562 112.394531 128.636719 C 113.089844 128.675781 113.628906 129.253906 113.625 129.949219 C 113.625 130.644531 113.078125 131.21875 112.382812 131.253906 L 111.042969 131.328125 C 108.914062 131.726562 107.238281 133.53125 107.097656 135.789062 C 106.933594 138.453125 108.96875 140.761719 111.632812 140.925781 C 111.683594 140.925781 111.734375 140.933594 111.785156 140.945312 L 113.054688 141.171875 L 121.414062 141.132812 L 121.421875 141.132812 C 122.128906 141.132812 122.710938 141.695312 122.730469 142.40625 C 122.75 143.117188 122.199219 143.71875 121.488281 143.753906 L 116.382812 144.019531 C 116.335938 144.019531 116.28125 144.019531 116.234375 144.019531 C 113.566406 143.855469 111.261719 145.890625 111.097656 148.554688 C 110.933594 151.21875 112.96875 153.527344 115.632812 153.691406 L 116.988281 153.773438 L 140.332031 154.847656 C 143.777344 155.0625 147.167969 154.636719 150.4375 153.578125 L 159.058594 150.792969 C 161.320312 150.0625 162.839844 150.125 165.765625 150.332031 L 172.835938 150.457031 C 173.558594 150.46875 174.136719 151.066406 174.125 151.789062 C 174.113281 152.511719 173.515625 153.097656 172.789062 153.078125 L 165.6875 152.957031 C 165.664062 152.957031 165.644531 152.957031 165.621094 152.957031 C 162.699219 152.753906 161.609375 152.730469 159.867188 153.296875 L 151.246094 156.082031 C 148.257812 157.046875 145.179688 157.53125 142.058594 157.53125 Z M 142.050781 157.515625 " fill-opacity="1" fill-rule="nonzero"/><path fill="#000100" d="M 174.675781 113.011719 C 174.582031 113.011719 174.484375 113.003906 174.386719 112.980469 C 173.988281 112.890625 164.609375 110.742188 159.894531 106.324219 C 157.917969 104.472656 156.242188 102.71875 154.621094 101.023438 C 149.460938 95.632812 145.738281 91.734375 138.519531 91.453125 C 137.796875 91.421875 137.230469 90.8125 137.257812 90.085938 C 137.289062 89.363281 137.894531 88.796875 138.625 88.828125 C 146.902344 89.152344 151.144531 93.589844 156.515625 99.210938 C 158.113281 100.882812 159.765625 102.609375 161.6875 104.40625 C 165.878906 108.335938 174.875 110.402344 174.964844 110.417969 C 175.667969 110.582031 176.113281 111.28125 175.953125 111.988281 C 175.816406 112.597656 175.273438 113.007812 174.675781 113.007812 Z M 174.675781 113.011719 " fill-opacity="1" fill-rule="nonzero"/><path fill="#000100" d="M 58.734375 207.867188 L 39.960938 207.867188 C 37.277344 207.867188 35.097656 205.6875 35.097656 203.003906 L 35.097656 197.773438 C 35.097656 197.050781 35.683594 196.460938 36.40625 196.460938 C 37.132812 196.460938 37.71875 197.050781 37.71875 197.773438 L 37.71875 203.003906 C 37.71875 204.238281 38.722656 205.246094 39.960938 205.246094 L 58.734375 205.246094 C 59.972656 205.246094 60.976562 204.238281 60.976562 203.003906 L 60.976562 198.855469 C 60.976562 198.128906 61.566406 197.542969 62.289062 197.542969 C 63.011719 197.542969 63.601562 198.128906 63.601562 198.855469 L 63.601562 203.003906 C 63.601562 205.6875 61.414062 207.867188 58.734375 207.867188 Z M 58.734375 207.867188 " fill-opacity="1" fill-rule="nonzero"/><path fill="#000100" d="M 175.636719 207.867188 L 156.859375 207.867188 C 154.175781 207.867188 151.996094 205.6875 151.996094 203.003906 L 151.996094 197.773438 C 151.996094 197.050781 152.585938 196.460938 153.308594 196.460938 C 154.03125 196.460938 154.621094 197.050781 154.621094 197.773438 L 154.621094 203.003906 C 154.621094 204.238281 155.625 205.246094 156.859375 205.246094 L 175.636719 205.246094 C 176.871094 205.246094 177.875 204.238281 177.875 203.003906 L 177.875 198.855469 C 177.875 198.128906 178.464844 197.542969 179.1875 197.542969 C 179.910156 197.542969 180.5 198.128906 180.5 198.855469 L 180.5 203.003906 C 180.5 205.6875 178.316406 207.867188 175.636719 207.867188 Z M 175.636719 207.867188 " fill-opacity="1" fill-rule="nonzero"/></svg>